<?xml version="1.0" encoding="UTF-8"?>
<svg version="1.1" xmlns="http://www.w3.org/2000/svg" width="891" height="584">
<path d="M0 0 C294.03 0 588.06 0 891 0 C891 192.72 891 385.44 891 584 C596.97 584 302.94 584 0 584 C0 391.28 0 198.56 0 0 Z " fill="#2E5A39" transform="translate(0,0)"/>
<path d="M0 0 C0.71043457 0.19255371 1.42086914 0.38510742 2.15283203 0.58349609 C6.83124389 1.88492742 11.42575316 3.37163877 16 5 C16.63244629 5.22413574 17.26489258 5.44827148 17.91650391 5.67919922 C44.52318283 15.28961574 66.44694818 33.10863293 84 55 C84.59683594 55.73089844 85.19367188 56.46179688 85.80859375 57.21484375 C89.91735869 62.43350883 92.94905488 68.11760222 96 74 C96.63035156 75.13953125 97.26070313 76.2790625 97.91015625 77.453125 C105.58740123 91.64112093 110.11265417 107.16908298 113 123 C113.29390625 121.18242187 113.29390625 121.18242187 113.59375 119.328125 C115.83430016 106.44041815 119.65530997 94.91963646 125 83 C125.7425 81.31970703 125.7425 81.31970703 126.5 79.60546875 C143.1761771 44.21596791 174.72960155 17.62203228 211 4 C216.58660499 2.01412103 222.2416614 0.40495547 228 -1 C228.99894287 -1.2477417 228.99894287 -1.2477417 230.01806641 -1.50048828 C265.61043475 -9.89712653 302.4249412 -2.2575528 334 15 C335.63582031 15.88171875 335.63582031 15.88171875 337.3046875 16.78125 C348.03809689 22.78977434 357.02814131 30.6499533 366 39 C366.67804687 39.62390625 367.35609375 40.2478125 368.0546875 40.890625 C378.38294851 50.76261746 386.06789572 62.6049343 393 75 C393.61746094 76.08539063 394.23492188 77.17078125 394.87109375 78.2890625 C406.50382906 100.00004733 410 122.53972871 410 147 C388.88 147 367.76 147 346 147 C345.67 142.38 345.34 137.76 345 133 C344.43051785 129.7941206 343.84448521 126.80573295 343 123.6875 C342.67841919 122.4962854 342.67841919 122.4962854 342.3503418 121.28100586 C335.92896158 99.13899723 321.24651383 81.84082185 301.18579102 70.67797852 C282.05137204 60.43140196 258.54903261 57.63694004 237.671875 63.8125 C215.62474731 70.94263491 196.88085468 84.67094411 185.96411133 105.44824219 C183.11469277 111.14244987 180.70543673 116.86768493 179 123 C178.62875 124.175625 178.2575 125.35125 177.875 126.5625 C176.55153244 133.27437119 176.4267367 140.17221287 176 147 C134.42 147 92.84 147 50 147 C49.34 141.39 48.68 135.78 48 130 C43.10712228 107.71022372 31.53584923 87.85085016 12.125 75.25 C-7.51546691 62.97078427 -29.77731956 58.20027113 -52.75390625 62.25 C-68.50708631 65.88972391 -82.0098771 73.26690612 -94 84 C-94.95132813 84.81017578 -94.95132813 84.81017578 -95.921875 85.63671875 C-113.26677372 101.43012423 -118.77317847 124.73178466 -121 147 C-142.12 147 -163.24 147 -185 147 C-185 106.20793849 -169.6658602 69.30889906 -141.7109375 39.671875 C-137.40077358 35.42381719 -132.7963025 31.68119576 -128 28 C-126.65035156 26.90945312 -126.65035156 26.90945312 -125.2734375 25.796875 C-90.89274068 -1.29094673 -42.27881637 -11.56976251 0 0 Z " fill="#FDFEFD" transform="translate(338,106)"/>
<path d="M0 0 C33.91397272 11.56638937 61.53902245 48.95466856 83.35042286 75.85848236 C83.95619411 76.59212006 84.56196537 77.32575775 85.18609333 78.08162689 C85.72322704 78.76029816 86.26036076 79.43896942 86.81377125 80.13820648 C87.28385042 80.72446682 87.7539296 81.31072716 88.23825359 81.91475296 C89.10481739 83.65633392 89.10481739 83.65633392 88.85755157 85.74412537 C87.788124 88.46084609 86.11352598 90.00630209 84.04402637 92.05770111 C83.18320957 92.91829132 82.32239277 93.77888153 81.43549061 94.66555023 C80.50007938 95.5854776 79.56466816 96.50540497 78.60091114 97.45320892 C77.63761663 98.41090612 76.6749839 99.36926939 75.71298695 100.32826996 C73.18289256 102.84692623 70.64391811 105.35644231 68.10298634 107.86415863 C65.51028062 110.42614124 62.92607784 112.99666894 60.34114552 115.56649017 C55.27065749 120.60483233 50.19073859 125.63356726 45.10481739 130.65633392 C39.96232732 126.35315781 35.15271669 121.84289563 30.42537403 117.09041595 C29.69283405 116.358022 28.96029408 115.62562805 28.20555592 114.87104034 C25.80631464 112.47110736 23.4106261 110.06766137 21.01497364 107.66414642 C19.34367866 105.99098463 17.67216147 104.31804477 16.00043201 102.64531708 C11.61707388 98.25815453 7.23672814 93.86799635 2.85701466 89.47719574 C-1.61910679 84.99081542 -6.09808687 80.50729101 -10.57682323 76.02352142 C-19.35240104 67.23724294 -28.12479732 58.44779532 -36.89518261 49.65633392 C-42.03767268 53.95951004 -46.84728331 58.46977222 -51.57462597 63.22225189 C-52.67343594 64.32084282 -52.67343594 64.32084282 -53.79444408 65.4416275 C-56.19368536 67.84156049 -58.5893739 70.24500647 -60.98502636 72.64852142 C-62.65632134 74.32168322 -64.32783853 75.99462307 -65.99956799 77.66735077 C-70.38292612 82.05451331 -74.76327186 86.4446715 -79.14298534 90.83547211 C-83.61910679 95.32185243 -88.09808687 99.80537684 -92.57682323 104.28914642 C-101.35240104 113.07542491 -110.12479732 121.86487252 -118.89518261 130.65633392 C-122.77698147 127.3783335 -126.58900435 124.08812221 -130.17814159 120.48690033 C-130.93840145 119.72656494 -131.69866131 118.96622955 -132.48195934 118.1828537 C-133.27703396 117.3826178 -134.07210857 116.5823819 -134.89127636 115.75789642 C-135.72482143 114.9229364 -136.55836651 114.08797638 -137.41717052 113.22771454 C-140.05804785 110.58127545 -142.69541157 107.93136634 -145.33268261 105.28133392 C-147.1312791 103.47771749 -148.93010488 101.67432967 -150.72916698 99.87117767 C-155.12049509 95.46887131 -159.5089499 91.06371678 -163.89518261 86.65633392 C-162.2430636 83.13184415 -160.3423058 80.92375931 -157.52018261 78.21883392 C-155.08113861 75.84203028 -152.82967328 73.57397934 -150.70768261 70.90633392 C-148.8675621 68.6220464 -146.8370682 66.94273546 -144.54752636 65.12508392 C-141.87688451 62.75118006 -139.67378222 59.98791589 -137.41080761 57.23055267 C-136.91065136 56.71106049 -136.41049511 56.1915683 -135.89518261 55.65633392 C-135.23518261 55.65633392 -134.57518261 55.65633392 -133.89518261 55.65633392 C-133.63030544 55.09657867 -133.36542828 54.53682343 -133.09252453 53.9601059 C-107.31978829 4.37150764 -53.14192729 -15.51981873 0 0 Z " fill="#FCFDFC" transform="translate(339.8951826095581,249.34366607666016)"/>
<path d="M0 0 C41.19974676 11.33264857 72.9445882 55.8225322 98.44631958 87.75245667 C97.50234147 88.86306595 96.55701982 89.97253334 95.61114502 91.08152771 C95.08486574 91.69948652 94.55858646 92.31744534 94.01635933 92.95413017 C91.84680356 95.43914345 89.53634329 97.75642992 87.18850708 100.07276917 C86.48300217 100.77259415 86.48300217 100.77259415 85.76324463 101.48655701 C84.28506386 102.95270232 82.80364209 104.41549972 81.32131958 105.87745667 C79.35740527 107.81458163 77.39697168 109.75513633 75.43850708 111.69776917 C74.57596313 112.54871155 73.71341919 113.39965393 72.82473755 114.27638245 C70.53108995 116.66420568 68.49362665 119.15348498 66.44631958 121.75245667 C65.14501534 122.974971 63.81225972 124.16511252 62.44631958 125.31495667 C59.66058847 127.69530153 56.98664892 130.10628026 54.44631958 132.75245667 C49.58640522 131.57429561 47.33080723 128.62811731 44.29006958 124.92042542 C42.13473194 122.38607713 39.8080216 120.09702518 37.44631958 117.75245667 C36.42291079 116.72991634 35.39995946 115.70691802 34.37739563 114.68353271 C33.54670563 113.85284271 33.54670563 113.85284271 32.69923401 113.00537109 C12.6149292 92.92106628 -7.46937561 72.83676147 -27.55368042 52.75245667 C-31.3699675 54.33060668 -33.78654132 56.73779036 -36.68600464 59.64186096 C-37.43320267 60.38621147 -37.43320267 60.38621147 -38.19549561 61.14559937 C-39.83804332 62.7844485 -41.47328657 64.43037962 -43.10836792 66.07667542 C-44.25376476 67.22326541 -45.39953267 68.36948484 -46.5456543 69.51535034 C-48.9477633 71.919023 -51.34647855 74.3260148 -53.74264526 76.73561096 C-56.79941061 79.80929867 -59.86264907 82.87643082 -62.92826653 85.94128704 C-65.29644738 88.30974131 -67.66200129 90.68080486 -70.0267067 93.05272865 C-71.1543295 94.18351335 -72.28254109 95.31371126 -73.41137314 96.4432888 C-79.00883309 102.04849066 -84.44743954 107.68911432 -89.55368042 113.75245667 C-90.52305542 114.55683167 -91.49243042 115.36120667 -92.49118042 116.18995667 C-94.99213127 118.282589 -96.9012599 120.22683605 -98.99118042 122.68995667 C-101.29679341 125.37303727 -103.63483487 127.92023746 -106.24118042 130.31495667 C-107.0513562 131.05939026 -107.0513562 131.05939026 -107.87789917 131.81886292 C-109.55368042 132.75245667 -109.55368042 132.75245667 -111.62399292 132.52589417 C-115.33009715 131.04045158 -117.70494308 127.71931355 -120.28512573 124.78004456 C-127.23770171 116.90207171 -134.66440752 109.52902695 -142.11618042 102.12745667 C-143.42435822 100.8243072 -144.73230259 99.52092337 -146.04000854 98.21730042 C-149.20855256 95.05964875 -152.38022219 91.90516916 -155.55368042 88.75245667 C-154.68961578 87.75584518 -153.82555115 86.7592337 -152.93530273 85.73242188 C-150.23748407 82.58542482 -147.63930463 79.3741197 -145.07024193 76.12176895 C-107.45120072 28.62017116 -65.64466333 -15.47151631 0 0 Z " fill="#FDFEFD" transform="translate(627.5536804199219,246.24754333496094)"/>
<path d="M0 0 C6.744375 -0.0825 13.48875 -0.165 20.4375 -0.25 C22.54825928 -0.28641602 24.65901855 -0.32283203 26.83374023 -0.36035156 C28.53368111 -0.37204967 30.23363331 -0.38223883 31.93359375 -0.390625 C33.2248114 -0.4213208 33.2248114 -0.4213208 34.54211426 -0.45263672 C41.92636642 -0.45682815 48.18562217 1.25426553 53.5625 6.5 C55.68739986 11.67366921 55.77335043 16.48601144 55 22 C52.88636019 25.77435681 50.87177764 27.26437554 47 29 C46.67 29.66 46.34 30.32 46 31 C46.70125 31.0825 47.4025 31.165 48.125 31.25 C52.62018463 32.42265686 55.90594201 34.49728677 58.65234375 38.26953125 C60.99514104 43.01624228 60.63116898 47.83142736 60 53 C57.52559842 58.13209217 53.97421501 61.36899057 48.99926758 64.09716797 C44.49579163 65.45279305 40.12580482 65.2447631 35.44921875 65.1953125 C34.10035583 65.19229126 34.10035583 65.19229126 32.72424316 65.18920898 C29.37860991 65.17877811 26.03304961 65.15085556 22.6875 65.125 C15.200625 65.08375 7.71375 65.0425 0 65 C0 43.55 0 22.1 0 0 Z " fill="#F9FCF9" transform="translate(570,414)"/>
<path d="M0 0 C4.29 0 8.58 0 13 0 C17.94703099 8.61149839 22.72352864 17.26040357 27.1015625 26.17626953 C29.82794976 31.71561783 32.75079531 37.12754692 35.75 42.5234375 C37 45 37 45 37 47 C40.00710345 44.40189892 41.5026577 41.40808684 43.29296875 37.890625 C43.60047058 37.29088364 43.90797241 36.69114227 44.22479248 36.07322693 C45.21751138 34.13473444 46.20244357 32.19239554 47.1875 30.25 C48.20058568 28.26792884 49.21571594 26.28691398 50.23097229 24.30595398 C50.89767192 23.00478511 51.56372263 21.70328353 52.22911072 20.40144348 C55.73173786 13.5523608 59.35299387 6.77301139 63 0 C67.62 0 72.24 0 77 0 C77 21.78 77 43.56 77 66 C72.38 66 67.76 66 63 66 C62.67 54.78 62.34 43.56 62 32 C57.94634144 39.49274022 57.94634144 39.49274022 53.89379883 46.98608398 C50.63205234 53.01141746 47.34021811 59.01780146 44 65 C40.04 65 36.08 65 32 65 C26 53.66666667 20 42.33333333 14 31 C13.67 42.22 13.34 53.44 13 65 C8.71 65 4.42 65 0 65 C0 43.55 0 22.1 0 0 Z " fill="#F9FCF9" transform="translate(135,414)"/>
<path d="M0 0 C30.69 0 61.38 0 93 0 C93 3.96 93 7.92 93 12 C85.74 12 78.48 12 71 12 C71 29.49 71 46.98 71 65 C66.38 65 61.76 65 57 65 C57 47.18 57 29.36 57 11 C49.74 11 42.48 11 35 11 C35 29.15 35 47.3 35 66 C30.38 66 25.76 66 21 66 C21 47.85 21 29.7 21 11 C14.07 11 7.14 11 0 11 C0 7.37 0 3.74 0 0 Z " fill="#F7FBF7" transform="translate(272,414)"/>
<path d="M0 0 C6.93 0 13.86 0 21 0 C21.58007812 1.7634375 22.16015625 3.526875 22.7578125 5.34375 C26.4950531 16.65897202 30.25131933 27.938485 34.515625 39.06640625 C36.38588532 43.97261946 38.13180956 48.92249496 39.875 53.875 C40.1858252 54.7508374 40.49665039 55.6266748 40.81689453 56.52905273 C41.10161621 57.34188721 41.38633789 58.15472168 41.6796875 58.9921875 C41.93476074 59.71776855 42.18983398 60.44334961 42.45263672 61.19091797 C43 63 43 63 43 65 C38.05 65 33.1 65 28 65 C24 54.375 24 54.375 24 51 C10.635 51.495 10.635 51.495 -3 52 C-3.99 55.3 -4.98 58.6 -6 62 C-6.66 62.99 -7.32 63.98 -8 65 C-11.2578125 65.29296875 -11.2578125 65.29296875 -15.125 65.1875 C-17.04699219 65.14689453 -17.04699219 65.14689453 -19.0078125 65.10546875 C-19.99523437 65.07066406 -20.98265625 65.03585937 -22 65 C-21.42273379 61.01606038 -20.56999408 57.42369145 -19.1796875 53.6484375 C-18.81262695 52.64208252 -18.44556641 51.63572754 -18.06738281 50.59887695 C-17.67389648 49.53499756 -17.28041016 48.47111816 -16.875 47.375 C-16.05393627 45.12657627 -15.23363333 42.87787459 -14.4140625 40.62890625 C-14.00575195 39.5114502 -13.59744141 38.39399414 -13.17675781 37.24267578 C-11.49645 32.61241677 -9.86798602 27.96483561 -8.25 23.3125 C-5.53799364 15.52764798 -2.78335165 7.75964702 0 0 Z " fill="#F8FBF8" transform="translate(238,414)"/>
<path d="M0 0 C4.62 0 9.24 0 14 0 C14 8.91 14 17.82 14 27 C24.56 27 35.12 27 46 27 C46 18.09 46 9.18 46 0 C56.83984375 -0.09765625 56.83984375 -0.09765625 60 0 C61.81415883 1.81415883 61.12770573 4.62445701 61.12939453 7.06445312 C61.13254669 8.36249878 61.13569885 9.66054443 61.13894653 10.9979248 C61.13715675 12.42570021 61.1351058 13.85347531 61.1328125 15.28125 C61.13348558 16.73474138 61.13445564 18.18823264 61.13571167 19.64172363 C61.13718846 22.69166127 61.1350347 25.74156966 61.13037109 28.79150391 C61.1246738 32.70930559 61.12795291 36.62703878 61.13394356 40.54483795 C61.13754969 43.54730754 61.13641035 46.54976077 61.13381577 49.55223083 C61.13314664 50.99718738 61.13397442 52.44214539 61.13629532 53.88710022 C61.13882265 55.90324883 61.13429052 57.91940262 61.12939453 59.93554688 C61.12859894 61.08502808 61.12780334 62.23450928 61.12698364 63.41882324 C61 66 61 66 60 67 C55.33154772 67.14426614 50.67134047 67.04208415 46 67 C46 58.09 46 49.18 46 40 C35.44 40 24.88 40 14 40 C14 48.58 14 57.16 14 66 C9.38 66 4.76 66 0 66 C0 44.22 0 22.44 0 0 Z " fill="#F9FCF9" transform="translate(430,413)"/>
<path d="M0 0 C6.6 0 13.2 0 20 0 C22.625 7 22.625 7 23.51196289 9.36889648 C24.85242514 12.94840051 26.19799304 16.52575421 27.55859375 20.09765625 C30.68117608 28.31487194 33.59149605 36.57523263 36.32177734 44.93310547 C37.63649166 48.93971865 38.97690728 52.9378093 40.3125 56.9375 C40.82952075 58.48825003 41.34645617 60.0390285 41.86328125 61.58984375 C42.23839844 62.71519531 42.61351562 63.84054687 43 65 C38.05 65 33.1 65 28 65 C26.05527566 60.09591252 24.88420206 56.30521238 24 51 C14.76 51 5.52 51 -4 51 C-4.66 54.3 -5.32 57.6 -6 61 C-6.66 62.32 -7.32 63.64 -8 65 C-12.95 65 -17.9 65 -23 65 C-18.50844548 51.31031522 -13.86801427 37.69801771 -8.89453125 24.17578125 C-6.80924242 18.50417805 -4.80068076 12.8066399 -2.81396484 7.09985352 C-1.10231202 2.20462404 -1.10231202 2.20462404 0 0 Z " fill="#F8FCF9" transform="translate(516,414)"/>
<path d="M0 0 C6.05607709 3.99418314 10.79428463 9.31242238 13.0078125 16.32421875 C13.0078125 17.97421875 13.0078125 19.62421875 13.0078125 21.32421875 C8.3878125 22.31421875 3.7678125 23.30421875 -0.9921875 24.32421875 C-2.13151042 21.81770833 -3.27083333 19.31119792 -4.41015625 16.8046875 C-6.32352436 13.80471528 -7.73607009 12.74473456 -10.9921875 11.32421875 C-17.07851924 10.5340634 -22.94418268 10.44145805 -28.6171875 12.88671875 C-33.70085753 18.10416957 -36.06361721 23.76105919 -36.3671875 31.01171875 C-36.26990845 37.60723816 -33.90940545 42.24892495 -29.40625 46.99609375 C-24.06764564 51.14575129 -18.10867078 51.03252966 -11.56640625 50.82421875 C-6.63462264 50.13430804 -3.79235662 48.36067349 0.0078125 45.32421875 C1.32636272 44.62877102 2.65672892 43.95413571 4.0078125 43.32421875 C5.51352907 44.44155604 7.01225542 45.5683191 8.5078125 46.69921875 C9.343125 47.32570313 10.1784375 47.9521875 11.0390625 48.59765625 C11.68875 49.16742188 12.3384375 49.7371875 13.0078125 50.32421875 C13.0078125 50.98421875 13.0078125 51.64421875 13.0078125 52.32421875 C7.61019828 57.53380133 2.19239291 61.21839346 -4.9921875 63.32421875 C-5.57097656 63.5046875 -6.14976562 63.68515625 -6.74609375 63.87109375 C-17.64361767 66.06955075 -29.12931055 64.85589623 -38.453125 58.69921875 C-45.0340376 53.45197947 -50.07321542 46.68298288 -51.30126953 38.18554688 C-52.26836898 26.85181996 -51.08994118 17.19230495 -43.8671875 8.07421875 C-33.11671601 -3.39760473 -14.33954182 -7.11980735 0 0 Z " fill="#F7FBF7" transform="translate(412.9921875,415.67578125)"/>
<path d="M0 0 C4.61253856 -1.49048786 8.87704974 -2.35214001 13.671875 -1.27880859 C22.50665092 3.5740182 27.74521965 18.31942723 32 27 C34.22633713 24.14913728 36.07966611 21.23990938 37.84765625 18.0859375 C38.37037109 17.16039062 38.89308594 16.23484375 39.43164062 15.28125 C40.52314984 13.33614137 41.61429288 11.39082721 42.70507812 9.4453125 C43.22650391 8.52234375 43.74792969 7.599375 44.28515625 6.6484375 C44.75832275 5.80458496 45.23148926 4.96073242 45.71899414 4.09130859 C47 2 47 2 49 0 C51.74485593 -0.14507695 54.38480543 -0.18652423 57.125 -0.125 C57.87910156 -0.11597656 58.63320313 -0.10695313 59.41015625 -0.09765625 C61.27357254 -0.0740687 63.13682593 -0.03819719 65 0 C62.14010377 5.97113726 58.89357549 11.49964759 55.3125 17.0625 C54.52782349 18.3151062 54.52782349 18.3151062 53.72729492 19.59301758 C51.34243548 23.39651046 48.94398056 27.13393006 46.25 30.7265625 C38.36048791 41.672455 38.7277848 52.8356729 39 66 C34.38 66 29.76 66 25 66 C25.07863281 64.43894531 25.15726563 62.87789063 25.23828125 61.26953125 C25.59819632 45.10781322 22.22020718 35.45475764 12.78076172 22.50195312 C9.86529137 18.40574526 7.28733021 14.11308493 4.6875 9.8125 C4.21393066 9.05138916 3.74036133 8.29027832 3.25244141 7.50610352 C0 2.23627105 0 2.23627105 0 0 Z " fill="#F8FBF8" transform="translate(691,414)"/>
<path d="M0 0 C7.22932997 5.4078556 13.06383343 12.56249388 14.6875 21.6875 C14.6875 23.9975 14.6875 26.3075 14.6875 28.6875 C9.7375 28.6875 4.7875 28.6875 -0.3125 28.6875 C-0.828125 26.99625 -1.34375 25.305 -1.875 23.5625 C-4.30157571 16.87650949 -7.6554652 13.86195312 -13.625 10.3125 C-20.55067384 8.70187818 -27.14249362 8.96221313 -33.3125 12.6875 C-39.08547672 17.70645527 -41.25537577 22.17017216 -42.3125 29.6875 C-47.5925 29.6875 -52.8725 29.6875 -58.3125 29.6875 C-57.5172886 17.36172326 -53.41573442 9.14479534 -44.3125 0.6875 C-31.39849726 -9.48644681 -13.4011716 -8.92095665 0 0 Z " fill="#F8FCF9" transform="translate(687.3125,420.3125)"/>
<path d="M0 0 C5.01052426 2.78434155 8.39578097 6.89785224 11.75537109 11.45117188 C13.548271 13.68227368 15.69661346 15.32330061 18 17 C17.45015228 20.87511727 15.72444669 22.59576506 12.9375 25.25 C11.83728516 26.30960937 11.83728516 26.30960937 10.71484375 27.390625 C10.14894531 27.92171875 9.58304688 28.4528125 9 29 C5.48576095 27.50862993 3.31523631 25.49442087 0.6875 22.75 C-2.12557195 19.85775218 -4.94749878 17.12667784 -8.0625 14.5625 C-9.5165625 13.2940625 -9.5165625 13.2940625 -11 12 C-11 11.34 -11 10.68 -11 10 C-18.08470943 15.91781611 -24.52848604 22.43141333 -31 29 C-34.45201639 27.52278578 -36.64961936 25.56205999 -39.25 22.875 C-39.95640625 22.15054687 -40.6628125 21.42609375 -41.390625 20.6796875 C-41.92171875 20.12539063 -42.4528125 19.57109375 -43 19 C-41.742238 17.41881349 -40.45791634 15.85646893 -39.10546875 14.35546875 C-37.5204513 12.58224886 -36.0145051 10.73787496 -34.55078125 8.86328125 C-25.59504935 -1.68762711 -13.24767385 -3.82721071 0 0 Z " fill="#F9FCF8" transform="translate(678,450)"/>
<path d="M0 0 C4.06290008 -0.08095816 8.12418567 -0.14048645 12.1875 -0.1875 C13.91323242 -0.22520508 13.91323242 -0.22520508 15.67382812 -0.26367188 C17.34155273 -0.27817383 17.34155273 -0.27817383 19.04296875 -0.29296875 C20.06414795 -0.3086792 21.08532715 -0.32438965 22.13745117 -0.34057617 C26.40875265 0.16760852 29.00313919 2.00313919 32 5 C32.51156434 8.83673259 32.30501126 10.52670667 30.1875 13.8125 C27.59203629 16.40796371 26.00461917 16.95672553 22.36450195 17.11352539 C21.33284912 17.10828857 20.30119629 17.10305176 19.23828125 17.09765625 C18.12001953 17.09443359 17.00175781 17.09121094 15.84960938 17.08789062 C14.68236328 17.07951172 13.51511719 17.07113281 12.3125 17.0625 C11.13365234 17.05798828 9.95480469 17.05347656 8.74023438 17.04882812 C5.82680133 17.03703285 2.91339433 17.01909727 0 17 C0 11.39 0 5.78 0 0 Z " fill="#375F41" transform="translate(584,451)"/>
<path d="M0 0 C3.20884784 -0.08127476 6.41561761 -0.14063141 9.625 -0.1875 C10.52863281 -0.21263672 11.43226563 -0.23777344 12.36328125 -0.26367188 C17.62636698 -0.3212969 21.53657876 -0.14386375 26 3 C27.16199424 6.75939312 27.61014116 8.8407318 25.75 12.375 C22.77773752 15.13495802 19.97958505 15.12108839 16.11328125 15.09765625 C15.17548828 15.09443359 14.23769531 15.09121094 13.27148438 15.08789062 C12.29501953 15.07951172 11.31855469 15.07113281 10.3125 15.0625 C8.83040039 15.05573242 8.83040039 15.05573242 7.31835938 15.04882812 C4.87888042 15.0370432 2.43943259 15.01910783 0 15 C0 10.05 0 5.1 0 0 Z " fill="#3B5F45" transform="translate(584,425)"/>
<path d="M0 0 C0.66 0 1.32 0 2 0 C3.33834986 3.78991493 4.66982663 7.58220836 6 11.375 C6.3815625 12.45523437 6.763125 13.53546875 7.15625 14.6484375 C7.5171875 15.6796875 7.878125 16.7109375 8.25 17.7734375 C8.58515625 18.72653809 8.9203125 19.67963867 9.265625 20.66162109 C10 23 10 23 10 25 C4.06 25 -1.88 25 -8 25 C-7.20173903 20.2104342 -6.21230734 16.43652951 -4.5625 11.9375 C-3.91474609 10.15666016 -3.91474609 10.15666016 -3.25390625 8.33984375 C-2.20423988 5.54400342 -1.12436615 2.7664637 0 0 Z " fill="#3E6248" transform="translate(525,428)"/>
<path d="M0 0 C0.99 0.33 1.98 0.66 3 1 C3.9831543 2.99365234 3.9831543 2.99365234 4.82421875 5.5859375 C5.13037109 6.51664062 5.43652344 7.44734375 5.75195312 8.40625 C6.06068359 9.3859375 6.36941406 10.365625 6.6875 11.375 C7.00783203 12.34695313 7.32816406 13.31890625 7.65820312 14.3203125 C10 21.55042311 10 21.55042311 10 25 C4.39 25 -1.22 25 -7 25 C-5.90419535 18.8466354 -4.5455466 13.72747985 -2 8 C-1.23478625 5.34757197 -0.6142657 2.69331884 0 0 Z " fill="#3C6247" transform="translate(247,428)"/>
<path d="M0 0 C10.83984375 -0.09765625 10.83984375 -0.09765625 14 0 C15.81415883 1.81415883 15.12770573 4.62445701 15.12939453 7.06445312 C15.13254669 8.36249878 15.13569885 9.66054443 15.13894653 10.9979248 C15.13715675 12.42570021 15.1351058 13.85347531 15.1328125 15.28125 C15.13348558 16.73474138 15.13445564 18.18823264 15.13571167 19.64172363 C15.13718846 22.69166127 15.1350347 25.74156966 15.13037109 28.79150391 C15.1246738 32.70930559 15.12795291 36.62703878 15.13394356 40.54483795 C15.13754969 43.54730754 15.13641035 46.54976077 15.13381577 49.55223083 C15.13314664 50.99718738 15.13397442 52.44214539 15.13629532 53.88710022 C15.13882265 55.90324883 15.13429052 57.91940262 15.12939453 59.93554688 C15.12859894 61.08502808 15.12780334 62.23450928 15.12698364 63.41882324 C15 66 15 66 14 67 C9.33154772 67.14426614 4.67134047 67.04208415 0 67 C0 58.09 0 49.18 0 40 C-10.56 40 -21.12 40 -32 40 C-32 39.67 -32 39.34 -32 39 C-21.11 39 -10.22 39 1 39 C1 47.91 1 56.82 1 66 C4.63 65.67 8.26 65.34 12 65 C12.33 43.88 12.66 22.76 13 1 C9.04 1 5.08 1 1 1 C1 9.58 1 18.16 1 27 C0.67 27 0.34 27 0 27 C0 18.09 0 9.18 0 0 Z " fill="#AFC3B5" transform="translate(476,413)"/>
<path d="M0 0 C5.61 0 11.22 0 17 0 C17 0.33 17 0.66 17 1 C11.72 1 6.44 1 1 1 C1.66386719 2.12277344 2.32773437 3.24554688 3.01171875 4.40234375 C7.43045226 11.88746113 11.83726912 19.36832672 16 27 C15.01 27 14.02 27 13 27 C13 27.66 13 28.32 13 29 C12.34 29 11.68 29 11 29 C10.75765625 28.34773438 10.5153125 27.69546875 10.265625 27.0234375 C7.16669098 18.9423711 3.87729053 13.31426996 -3 8 C-2.01 5.36 -1.02 2.72 0 0 Z " fill="#52725E" transform="translate(690,413)"/>
<path d="M0 0 C4.28115853 4.77513836 7.03759841 10.36156231 10 16 C9.01 16 8.02 16 7 16 C7 16.66 7 17.32 7 18 C6.34 18 5.68 18 5 18 C3.66666667 14.66666667 2.33333333 11.33333333 1 8 C0.60554687 7.12730469 0.21109375 6.25460937 -0.1953125 5.35546875 C-1 3 -1 3 0 0 Z " fill="#486450" transform="translate(696,424)"/>
<path d="M0 0 C0 3.96061609 -1.60078228 6.92692792 -4 10 C-5.32793575 10.67735432 -6.66163566 11.34349173 -8 12 C-9.73442288 13.70377665 -9.73442288 13.70377665 -11.25 15.625 C-12.03117188 16.57246094 -12.03117188 16.57246094 -12.828125 17.5390625 C-13.21484375 18.02117187 -13.6015625 18.50328125 -14 19 C-14.66 18.67 -15.32 18.34 -16 18 C-11.04098482 11.56383136 -5.88646725 5.60466829 0 0 Z " fill="#46664B" transform="translate(247,186)"/>
<path d="M0 0 C2 1 4 2 6 3 C5.88610125 4.79240663 5.75852313 6.58394835 5.625 8.375 C5.55539062 9.37273437 5.48578125 10.37046875 5.4140625 11.3984375 C5 14 5 14 3 16 C2.01 10.72 1.02 5.44 0 0 Z " fill="#405E46" transform="translate(447,215)"/>
<path d="M0 0 C0 3.10551666 -0.5393715 4.35261084 -2 7 C-2.99 7 -3.98 7 -5 7 C-5.20625 7.78375 -5.4125 8.5675 -5.625 9.375 C-7 12 -7 12 -10.125 13.3125 C-11.07375 13.539375 -12.0225 13.76625 -13 14 C-8.88380164 9.08064098 -4.59589638 4.47352044 0 0 Z " fill="#516C54" transform="translate(710,350)"/>
<path d="M0 0 C0.99 0.33 1.98 0.66 3 1 C5.05893621 1.22325814 7.12233653 1.40705759 9.1875 1.5625 C10.27417969 1.64628906 11.36085938 1.73007812 12.48046875 1.81640625 C13.72763672 1.90728516 13.72763672 1.90728516 15 2 C15.33 1.34 15.66 0.68 16 0 C16 1.32 16 2.64 16 4 C10.72 4 5.44 4 0 4 C0 2.68 0 1.36 0 0 Z " fill="#C4D4C7" transform="translate(629,446)"/>
<path d="M0 0 C0.33 0 0.66 0 1 0 C1.17819397 3.92026737 1.28871935 6.73040093 -1 10 C-3.625 12.25 -3.625 12.25 -6 14 C-6 10.27792613 -4.82035432 8.53604411 -3 5.3125 C-2.443125 4.31863281 -1.88625 3.32476562 -1.3125 2.30078125 C-0.879375 1.54152344 -0.44625 0.78226562 0 0 Z " fill="#46614C" transform="translate(197,445)"/>
<path d="M0 0 C1.8871875 -0.02126953 1.8871875 -0.02126953 3.8125 -0.04296875 C7 0.1875 7 0.1875 9 2.1875 C8.3709375 2.16429687 7.741875 2.14109375 7.09375 2.1171875 C1.32983602 1.99565919 -3.47263742 2.54976294 -9 4.1875 C-9 3.1975 -9 2.2075 -9 1.1875 C-6.02958551 -0.29770725 -3.30235553 0.0169178 0 0 Z " fill="#456150" transform="translate(395,425.8125)"/>
<path d="M0 0 C0.33 0.99 0.66 1.98 1 3 C0.34 3 -0.32 3 -1 3 C-0.67 2.01 -0.34 1.02 0 0 Z M-3 3 C-2.34 3.33 -1.68 3.66 -1 4 C-2.875 8.75 -2.875 8.75 -4 11 C-6.31 11 -8.62 11 -11 11 C-9.625 9.5 -9.625 9.5 -8 8 C-7.34 8 -6.68 8 -6 8 C-5.690625 7.360625 -5.38125 6.72125 -5.0625 6.0625 C-4 4 -4 4 -3 3 Z " fill="#526F59" transform="translate(691,369)"/>
<path d="M0 0 C0.33 0.66 0.66 1.32 1 2 C-1.10515339 5.72450216 -2.24267224 7.6795921 -6.25 9.375 C-7.61125 9.684375 -7.61125 9.684375 -9 10 C-8.06409496 8.8944811 -7.12620142 7.79064547 -6.1875 6.6875 C-5.66542969 6.07261719 -5.14335938 5.45773437 -4.60546875 4.82421875 C-3.12827531 3.14575321 -1.59960869 1.56117966 0 0 Z " fill="#4F6956" transform="translate(725,335)"/>
<path d="M0 0 C1 4 1 4 1 6 C-4.625 8 -4.625 8 -8 8 C-5.36 5.36 -2.72 2.72 0 0 Z " fill="#4F6B53" transform="translate(575,321)"/>
<path d="M0 0 C0.33 0.99 0.66 1.98 1 3 C-1.31 5.31 -3.62 7.62 -6 10 C-6.99 9.67 -7.98 9.34 -9 9 C-6.03 6.03 -3.06 3.06 0 0 Z " fill="#D5E5D9" transform="translate(223,286)"/>
<path d="M0 0 C0.99 0.33 1.98 0.66 3 1 C2.06725891 2.12894876 1.12859878 3.25300876 0.1875 4.375 C-0.33457031 5.00148438 -0.85664062 5.62796875 -1.39453125 6.2734375 C-3 8 -3 8 -6 10 C-5.49477778 5.62140745 -2.82172778 3.18348776 0 0 Z " fill="#466652" transform="translate(542,260)"/>
<path d="M0 0 C1 4 1 4 0.3125 6.125 C-1.2190732 8.31296172 -2.54765115 9.01906046 -5 10 C-5.33 9.34 -5.66 8.68 -6 8 C-4.02 5.36 -2.04 2.72 0 0 Z " fill="#EBF7EB" transform="translate(483,157)"/>
<path d="M0 0 C0.66 0 1.32 0 2 0 C2.99 3.3 3.98 6.6 5 10 C4.01 10.495 4.01 10.495 3 11 C2.67 8.69 2.34 6.38 2 4 C1.34 4 0.68 4 0 4 C-0.33 4.99 -0.66 5.98 -1 7 C-1.33 6.34 -1.66 5.68 -2 5 C-1.0625 2.375 -1.0625 2.375 0 0 Z " fill="#5C7B6B" transform="translate(525,428)"/>
<path d="M0 0 C0.99 0.33 1.98 0.66 3 1 C3.33 2.65 3.66 4.3 4 6 C2.35 6.33 0.7 6.66 -1 7 C-0.67 4.69 -0.34 2.38 0 0 Z " fill="#55705F" transform="translate(247,428)"/>
<path d="M0 0 C0.99 0.66 1.98 1.32 3 2 C2 5 2 5 0 6 C-0.72159424 7.64363134 -1.39351421 9.31050386 -2 11 C-3 9 -3 9 -2.44140625 6.8359375 C-2.15136719 6.02382812 -1.86132812 5.21171875 -1.5625 4.375 C-1.27503906 3.55773437 -0.98757813 2.74046875 -0.69140625 1.8984375 C-0.46324219 1.27195313 -0.23507812 0.64546875 0 0 Z " fill="#E2EDE3" transform="translate(457,205)"/>
<path d="M0 0 C0.66 0 1.32 0 2 0 C1.49202991 4.3177458 0.80317221 8.03302114 -1 12 C-1.93065133 9.39417629 -2.14917407 8.35801776 -1.0625 5.75 C-0.5365625 4.88375 -0.5365625 4.88375 0 4 C-0.66 3.67 -1.32 3.34 -2 3 C-1.34 2.01 -0.68 1.02 0 0 Z " fill="#40624A" transform="translate(218,464)"/>
<path d="M0 0 C0.66 0.99 1.32 1.98 2 3 C-0.39509338 5.89932357 -2.31245243 6.50168276 -6 7 C-4.02 4.69 -2.04 2.38 0 0 Z " fill="#506C53" transform="translate(558,338)"/>
<path d="M0 0 C0.33 1.32 0.66 2.64 1 4 C-0.98 5.32 -2.96 6.64 -5 8 C-5.66 7.67 -6.32 7.34 -7 7 C-4.69 4.69 -2.38 2.38 0 0 Z " fill="#526D55" transform="translate(566,330)"/>
<path d="M0 0 C2.475 0.495 2.475 0.495 5 1 C5.33 1.99 5.66 2.98 6 4 C8.00016466 5.20882096 8.00016466 5.20882096 10 6 C9.34 6 8.68 6 8 6 C7.67 6.66 7.34 7.32 7 8 C5.83035398 6.8572081 4.66435444 5.71068285 3.5 4.5625 C2.8503125 3.92441406 2.200625 3.28632813 1.53125 2.62890625 C0 1 0 1 0 0 Z " fill="#F1FDF4" transform="translate(614,312)"/>
<path d="M0 0 C0.66 0.33 1.32 0.66 2 1 C0.19587357 4.26460973 -0.83394693 5.88929795 -4 8 C-4 4 -4 4 -2 1.75 C-1.01 0.88375 -1.01 0.88375 0 0 Z " fill="#48664C" transform="translate(536,360)"/>
<path d="M0 0 C0 3.16880694 -0.2058242 4.43689172 -2 7 C-4.625 7.75 -4.625 7.75 -7 8 C-6.02133662 6.85373678 -5.04205413 5.70800212 -4.0625 4.5625 C-3.51722656 3.92441406 -2.97195313 3.28632813 -2.41015625 2.62890625 C-1.63204305 1.73008851 -0.84063472 0.84063472 0 0 Z " fill="#566E5E" transform="translate(710,350)"/>
<path d="M0 0 C2.5654594 2.5654594 2.54046087 4.47686668 3 8 C2.01 8.33 1.02 8.66 0 9 C-0.84454356 5.62182575 -1.10844919 3.32534757 0 0 Z " fill="#426450" transform="translate(381,219)"/>
<path d="M0 0 C1.98 0 3.96 0 6 0 C5.34 1.65 4.68 3.3 4 5 C3.34 5 2.68 5 2 5 C1.34 3.35 0.68 1.7 0 0 Z " fill="#496653" transform="translate(170,456)"/>
<path d="M0 0 C1.96301592 3.50538557 2.95902388 7.13351728 4 11 C3.34 11 2.68 11 2 11 C1.01 7.7 0.02 4.4 -1 1 C-0.67 0.67 -0.34 0.34 0 0 Z " fill="#3E5D46" transform="translate(546,438)"/>
<path d="M0 0 C0 4.38968456 -2.12805101 5.76905739 -5 9 C-5.66 8.67 -6.32 8.34 -7 8 C-4.69 5.36 -2.38 2.72 0 0 Z " fill="#406149" transform="translate(654,432)"/>
<path d="M0 0 C0 0.99 0 1.98 0 3 C-0.99 3.495 -0.99 3.495 -2 4 C-1.34 2.68 -0.68 1.36 0 0 Z M-2 4 C-2.33 5.32 -2.66 6.64 -3 8 C-4.32 7.67 -5.64 7.34 -7 7 C-4.25 4 -4.25 4 -2 4 Z " fill="#58735B" transform="translate(545,351)"/>
<path d="M0 0 C0.33 0 0.66 0 1 0 C1.3125 2.8125 1.3125 2.8125 1 6 C-1.5 7.875 -1.5 7.875 -4 9 C-2.80100302 5.9168649 -1.52299523 2.93720508 0 0 Z " fill="#E2F0E5" transform="translate(735,421)"/>
<path d="M0 0 C0.99 1.32 1.98 2.64 3 4 C1.68 4.99 0.36 5.98 -1 7 C-1.66 6.01 -2.32 5.02 -3 4 C-2.01 2.68 -1.02 1.36 0 0 Z " fill="#406345" transform="translate(528,368)"/>
<path d="M0 0 C0.66 0.99 1.32 1.98 2 3 C-0.97 5.475 -0.97 5.475 -4 8 C-3.49396008 5.83125748 -3.00016187 4.00032373 -2 2 C-1.34 2 -0.68 2 0 2 C0 1.34 0 0.68 0 0 Z " fill="#46694C" transform="translate(518,284)"/>
<path d="M0 0 C2.5 1.3125 2.5 1.3125 5 3 C5 3.99 5 4.98 5 6 C1.83884224 4.63016497 1.0072908 4.0109362 -1 1 C-0.67 0.67 -0.34 0.34 0 0 Z " fill="#546C5A" transform="translate(688,458)"/>
<path d="M0 0 C2.33944736 0.28730055 4.6739143 0.61936779 7 1 C4 3 4 3 2 3 C1.67 3.99 1.34 4.98 1 6 C0.34 4.35 -0.32 2.7 -1 1 C-0.67 0.67 -0.34 0.34 0 0 Z " fill="#3E5C44" transform="translate(628,449)"/>
<path d="M0 0 C0.66 0.66 1.32 1.32 2 2 C1.67 2.66 1.34 3.32 1 4 C1.66 4.33 2.32 4.66 3 5 C2.34 5.66 1.68 6.32 1 7 C0.01 6.01 -0.98 5.02 -2 4 C-1.34 2.68 -0.68 1.36 0 0 Z " fill="#E7F3E7" transform="translate(178,332)"/>
</svg>
